<?xml version="1.0" encoding="utf-8"?>
<!-- Generator: Adobe Illustrator 24.1.2, SVG Export Plug-In . SVG Version: 6.00 Build 0)  -->
<svg version="1.1" id="Ebene_1" xmlns="http://www.w3.org/2000/svg" xmlns:xlink="http://www.w3.org/1999/xlink" x="0px" y="0px"
	 viewBox="0 0 153.07 153.07" style="enable-background:new 0 0 153.07 153.07;" xml:space="preserve">
<style type="text/css">
	.st0{fill:#D9161C;}
	.st1{fill:#DA171C;}
	.st2{fill:#E52626;}
	.st3{fill:#E52527;}
	.st4{fill:#FFFEFE;}
	.st5{fill:#FFFFFF;}
	.st6{fill:none;stroke:#FFFFFF;stroke-width:1.5;stroke-miterlimit:10;}
	.st7{display:none;fill:#E72486;}
</style>
<g>
	<path class="st0" d="M19.91,62.78c0-15.77,0.29-8.96,0.27-24.72c0-1.09,18.83-20.88,19.37-20.88c36.9,0.03,29.73-1.75,66.63-1.75
		c0.2,0.51,21.25,16.43,21.25,17c0,15.14,3.99,13.7,3.98,28.84c0,0.52,0.05,1.07-0.11,1.56c-0.2,0.35-0.45,0.34-0.69,0.35
		c-0.24,0.02-0.49,0.01-0.73,0.01c-36.18,0-72.37,0-108.55-0.01C20.85,63.18,20.35,63.45,19.91,62.78z"/>
	<path class="st1" d="M27.8,110.06c0-14.32-7.89-7.37-7.89-21.68c0.19-0.32,0.44-0.35,0.68-0.36c0.2-0.01,0.39-0.01,0.59-0.01
		c36.3,0,72.6,0,108.9,0.01c0.41,0,0.83-0.16,1.21,0.28c0.19,0.46,0.12,0.99,0.12,1.5c0,13.33-5.61,7.18-5.61,20.51
		c0,1.67-13.28,18.5-14.25,18.5c-36.58,0-25.92-2.74-62.5-2.75C48.79,126.06,28.06,110.29,27.8,110.06z"/>
	<path d="M19.91,87.92c0-8.21,0-16.41,0-24.62c0.38-0.25,0.81-0.14,1.21-0.14c35.68-0.01,71.35-0.01,107.03-0.01
		c0.78,0,1.56,0,2.34,0c0.26,0,0.54-0.05,0.79,0.1c0.19,0.26,0.13,0.56,0.13,0.85c0,7.66,0,15.32,0,22.97
		c0,0.29,0.06,0.59-0.11,0.86c-0.29,0.2-0.62,0.12-0.93,0.12c-36.52,0-73.03,0-109.55,0C20.52,88.06,20.19,88.13,19.91,87.92z"/>
	<path class="st2" d="M131.25,63c0,0.09,0,0.18,0,0.26c-33.62,0-67.24,0-100.87,0c-3.49,0-6.98,0.02-10.47,0.03c0-0.1,0-0.2,0-0.29
		C57.02,63.01,94.14,63.01,131.25,63z"/>
	<path class="st3" d="M131.25,87.95c0,0.09,0,0.18,0,0.26c-37.11,0-74.22,0-111.33,0c0-0.1,0-0.2,0-0.29
		c0.22,0.01,0.44,0.03,0.66,0.03c36.82,0,73.64,0,110.46,0C131.1,87.95,131.18,87.95,131.25,87.95z"/>
	<path class="st4" d="M54.65,80.82c-1.67,1.68-3.33,3.33-4.97,5c-0.35,0.36-0.49,0.07-0.68-0.13c-1.6-1.61-3.2-3.22-4.82-4.85
		c-1.61,1.62-3.21,3.2-4.78,4.81c-0.34,0.35-0.53,0.4-0.9,0.02c-1.58-1.63-3.19-3.23-4.81-4.86c1.57-1.57,3.12-3.15,4.72-4.69
		c0.46-0.44,0.39-0.65-0.02-1.05c-1.48-1.42-2.9-2.9-4.37-4.33c-0.3-0.29-0.3-0.42,0-0.71c1.54-1.5,3.06-3.02,4.56-4.55
		c0.3-0.31,0.46-0.28,0.74,0.01c1.49,1.51,3.01,3,4.49,4.52c0.28,0.29,0.42,0.31,0.71,0.01c1.47-1.5,2.97-2.97,4.44-4.47
		c0.32-0.32,0.49-0.39,0.85-0.02c1.48,1.52,2.99,3.02,4.51,4.5c0.29,0.28,0.31,0.42,0.01,0.72c-1.49,1.45-2.93,2.94-4.43,4.38
		c-0.44,0.42-0.35,0.63,0.03,1C51.51,77.66,53.07,79.24,54.65,80.82z"/>
	<path class="st5" d="M96.54,80.82c1.61-1.61,3.21-3.22,4.83-4.81c0.32-0.31,0.34-0.46,0.01-0.79c-1.63-1.58-3.22-3.2-4.84-4.82
		c1.66-1.67,3.32-3.31,4.95-4.99c0.34-0.35,0.48-0.11,0.68,0.1c1.6,1.61,3.2,3.22,4.85,4.87c1.62-1.63,3.23-3.23,4.8-4.85
		c0.34-0.36,0.52-0.33,0.85,0.01c1.49,1.52,2.99,3.02,4.51,4.5c0.31,0.3,0.27,0.43-0.02,0.71c-1.5,1.47-2.97,2.97-4.47,4.44
		c-0.33,0.32-0.36,0.5-0.01,0.84c1.51,1.46,2.97,2.97,4.47,4.44c0.27,0.26,0.37,0.39,0.04,0.71c-1.54,1.49-3.07,3.01-4.56,4.55
		c-0.34,0.35-0.5,0.26-0.79-0.03c-1.59-1.62-3.19-3.22-4.81-4.85c-1.62,1.62-3.21,3.2-4.78,4.81c-0.35,0.36-0.54,0.37-0.9,0
		C99.76,84.03,98.15,82.44,96.54,80.82z"/>
	<path class="st5" d="M86.06,80.87c-0.14,0.14-0.23,0.25-0.33,0.35c-1.5,1.5-3.01,2.99-4.5,4.51c-0.29,0.3-0.45,0.3-0.74,0
		c-1.49-1.52-3.01-2.99-4.49-4.52c-0.35-0.36-0.52-0.31-0.84,0.02c-1.47,1.5-2.97,2.97-4.44,4.46c-0.3,0.3-0.46,0.37-0.79,0.02
		c-1.46-1.51-2.95-2.99-4.45-4.45c-0.32-0.31-0.34-0.47,0-0.79c1.51-1.46,2.97-2.97,4.47-4.43c0.38-0.36,0.33-0.55-0.02-0.89
		c-1.5-1.46-2.97-2.97-4.47-4.43c-0.29-0.28-0.33-0.43-0.02-0.74c1.52-1.48,3.02-2.99,4.5-4.5c0.29-0.3,0.45-0.3,0.74,0
		C72.18,67,73.7,68.48,75.18,70c0.35,0.37,0.52,0.31,0.84-0.02c1.47-1.5,2.97-2.97,4.44-4.46c0.3-0.3,0.46-0.37,0.79-0.02
		c1.46,1.51,2.95,2.99,4.45,4.45c0.32,0.31,0.34,0.47,0,0.79c-1.51,1.46-2.97,2.97-4.47,4.43c-0.38,0.36-0.33,0.55,0.02,0.89
		c1.49,1.45,2.95,2.92,4.41,4.39C85.79,80.58,85.92,80.72,86.06,80.87z"/>
</g>
<g>
	<path d="M76.43,5.65c-39.14,0-70.87,31.73-70.87,70.87s31.73,70.87,70.87,70.87c39.14,0,70.87-31.73,70.87-70.87
		S115.57,5.65,76.43,5.65z M76.43,126.68c-27.71,0-50.17-22.46-50.17-50.17s22.46-50.17,50.17-50.17
		c27.71,0,50.17,22.46,50.17,50.17S104.14,126.68,76.43,126.68z"/>
	<circle class="st6" cx="76.43" cy="76.51" r="50.17"/>
</g>
<rect x="0.09" y="69.3" class="st7" width="5.67" height="9.97"/>
<rect x="147.34" y="74.3" class="st7" width="5.67" height="9.97"/>
<rect x="69.03" y="0.08" class="st7" width="11.13" height="5.67"/>
<rect x="67.2" y="147.24" class="st7" width="11.13" height="5.67"/>
</svg>
