<?xml version="1.0" encoding="utf-8"?>
<!-- Generator: Adobe Illustrator 24.1.2, SVG Export Plug-In . SVG Version: 6.00 Build 0)  -->
<svg version="1.1" id="Capa_1" xmlns="http://www.w3.org/2000/svg" xmlns:xlink="http://www.w3.org/1999/xlink" x="0px" y="0px"
	 viewBox="0 0 510 510" style="enable-background:new 0 0 510 510;" xml:space="preserve">
<style type="text/css">
	.st0{fill:#FFFFFF;}
</style>
<g>
	<g id="shopping-cart">
		<path class="st0" d="M153,408c-28.1,0-51,23-51,51s22.9,51,51,51s51-23,51-51S181.1,408,153,408z M0,0v51h51l91.8,193.8L107.1,306
			c-2.6,7.6-5.1,17.9-5.1,25.5c0,28,22.9,51,51,51h306v-51H163.2c-2.6,0-5.1-2.5-5.1-5.1v-2.6l22.9-43.4h188.7
			c20.4,0,35.7-10.2,43.4-25.5l91.8-165.7c5.1-5.1,5.1-7.7,5.1-12.8c0-15.3-10.2-25.5-25.5-25.5H107.1L84.2,0H0z M408,408
			c-28,0-51,23-51,51s23,51,51,51s51-23,51-51S436,408,408,408z"/>
	</g>
</g>
</svg>
